<mxfile host="app.diagrams.net" agent="Mozilla/5.0 (Windows NT 10.0; Win64; x64) AppleWebKit/537.36 (KHTML, like Gecko) Chrome/131.0.0.0 Safari/537.36" version="25.0.3">
  <diagram name="Page-1" id="gmYKYVq6cZ4wLupK1Xb5">
    <mxGraphModel dx="1900" dy="557" grid="1" gridSize="10" guides="1" tooltips="1" connect="1" arrows="1" fold="1" page="1" pageScale="1" pageWidth="850" pageHeight="1100" math="0" shadow="0">
      <root>
        <mxCell id="0" />
        <mxCell id="1" parent="0" />
        <mxCell id="N7E2ui3s0i_7hdGitSKV-4" style="edgeStyle=orthogonalEdgeStyle;rounded=0;orthogonalLoop=1;jettySize=auto;html=1;entryX=0.6;entryY=0;entryDx=0;entryDy=0;entryPerimeter=0;" parent="1" source="N7E2ui3s0i_7hdGitSKV-3" edge="1" target="N7E2ui3s0i_7hdGitSKV-5">
          <mxGeometry relative="1" as="geometry">
            <mxPoint x="-680" y="400" as="targetPoint" />
          </mxGeometry>
        </mxCell>
        <mxCell id="N7E2ui3s0i_7hdGitSKV-3" value="start" style="strokeWidth=2;html=1;shape=mxgraph.flowchart.start_1;whiteSpace=wrap;" parent="1" vertex="1">
          <mxGeometry x="-425" y="30" width="80" height="60" as="geometry" />
        </mxCell>
        <mxCell id="N7E2ui3s0i_7hdGitSKV-5" value="input a, b" style="shape=parallelogram;html=1;strokeWidth=2;perimeter=parallelogramPerimeter;whiteSpace=wrap;rounded=1;arcSize=12;size=0.23;" parent="1" vertex="1">
          <mxGeometry x="-445" y="160" width="100" height="60" as="geometry" />
        </mxCell>
        <mxCell id="N7E2ui3s0i_7hdGitSKV-8" style="edgeStyle=orthogonalEdgeStyle;rounded=0;orthogonalLoop=1;jettySize=auto;html=1;entryX=0.426;entryY=0.05;entryDx=0;entryDy=0;entryPerimeter=0;" parent="1" edge="1" target="N7E2ui3s0i_7hdGitSKV-9">
          <mxGeometry relative="1" as="geometry">
            <mxPoint x="-400" y="435" as="targetPoint" />
            <mxPoint x="-420" y="370" as="sourcePoint" />
            <Array as="points">
              <mxPoint x="-399" y="370" />
              <mxPoint x="-399" y="440" />
              <mxPoint x="-402" y="440" />
            </Array>
          </mxGeometry>
        </mxCell>
        <mxCell id="N7E2ui3s0i_7hdGitSKV-7" value="sum = a + b" style="rounded=1;whiteSpace=wrap;html=1;absoluteArcSize=1;arcSize=14;strokeWidth=2;" parent="1" vertex="1">
          <mxGeometry x="-450" y="300" width="110" height="70" as="geometry" />
        </mxCell>
        <mxCell id="N7E2ui3s0i_7hdGitSKV-9" value="print(&quot;sum&quot;)" style="strokeWidth=2;html=1;shape=mxgraph.flowchart.display;whiteSpace=wrap;" parent="1" vertex="1">
          <mxGeometry x="-445" y="460" width="100" height="60" as="geometry" />
        </mxCell>
        <mxCell id="N7E2ui3s0i_7hdGitSKV-11" value="end" style="strokeWidth=2;html=1;shape=mxgraph.flowchart.start_1;whiteSpace=wrap;" parent="1" vertex="1">
          <mxGeometry x="-425" y="600" width="80" height="60" as="geometry" />
        </mxCell>
        <mxCell id="XVAr-kXmVvZKO3P8OfrO-2" value="" style="endArrow=classic;html=1;rounded=0;entryX=0.44;entryY=0.003;entryDx=0;entryDy=0;entryPerimeter=0;" edge="1" parent="1" source="N7E2ui3s0i_7hdGitSKV-5" target="N7E2ui3s0i_7hdGitSKV-7">
          <mxGeometry width="50" height="50" relative="1" as="geometry">
            <mxPoint x="-420" y="290" as="sourcePoint" />
            <mxPoint x="-430" y="440.79998779296875" as="targetPoint" />
          </mxGeometry>
        </mxCell>
        <mxCell id="XVAr-kXmVvZKO3P8OfrO-3" value="" style="endArrow=classic;html=1;rounded=0;entryX=0.5;entryY=0;entryDx=0;entryDy=0;entryPerimeter=0;" edge="1" parent="1" target="N7E2ui3s0i_7hdGitSKV-11">
          <mxGeometry width="50" height="50" relative="1" as="geometry">
            <mxPoint x="-385" y="525" as="sourcePoint" />
            <mxPoint x="-435" y="575" as="targetPoint" />
            <Array as="points" />
          </mxGeometry>
        </mxCell>
      </root>
    </mxGraphModel>
  </diagram>
</mxfile>
